<svg width="95" height="20" viewBox="0 0 95 20" fill="none" xmlns="http://www.w3.org/2000/svg">
<g clip-path="url(#clip0_8579_3682)">
<path d="M10 13.3334C10.8841 13.3334 11.7319 12.9822 12.357 12.357C12.9822 11.7319 13.3334 10.8841 13.3334 10C13.3334 9.11597 12.9822 8.26812 12.357 7.643C11.7319 7.01788 10.8841 6.66669 10 6.66669C9.11597 6.66669 8.26812 7.01788 7.643 7.643C7.01788 8.26812 6.66669 9.11597 6.66669 10C6.66669 10.8841 7.01788 11.7319 7.643 12.357C8.26812 12.9822 9.11597 13.3334 10 13.3334V13.3334Z" stroke="#E6A500" stroke-width="2" stroke-linecap="round" stroke-linejoin="round"/>
<path d="M14.5834 5.41669L15.8334 4.16669M13.3334 10.3217C12.83 10.6938 12.2098 10.8729 11.5855 10.8264C10.9613 10.7799 10.3744 10.5109 9.93181 10.0682C9.48917 9.62559 9.22012 9.03877 9.1736 8.41451C9.12709 7.79025 9.3062 7.17004 9.67835 6.66669L13.3334 10.3217ZM10 1.66669V3.33335V1.66669ZM10 16.6667V18.3334V16.6667ZM4.16669 4.16669L5.41669 5.41669L4.16669 4.16669ZM14.5834 14.5834L15.8334 15.8334L14.5834 14.5834ZM1.66669 10H3.33335H1.66669ZM16.6667 10H18.3334H16.6667ZM4.16669 15.8334L5.41669 14.5834L4.16669 15.8334Z" stroke="#E6A500" stroke-width="1.5" stroke-linecap="round" stroke-linejoin="round"/>
</g>
<path d="M32.8807 14V6.72727H33.7614V13.2188H37.142V14H32.8807ZM39.3864 6.72727V14H38.5057V6.72727H39.3864ZM46.1238 9C46.0456 8.76089 45.9426 8.54664 45.8148 8.35724C45.6893 8.16548 45.539 8.00213 45.3638 7.86719C45.191 7.73224 44.9945 7.62926 44.7743 7.55824C44.5542 7.48722 44.3127 7.4517 44.0499 7.4517C43.619 7.4517 43.2272 7.56297 42.8745 7.78551C42.5217 8.00805 42.2412 8.33594 42.0328 8.76918C41.8245 9.20241 41.7203 9.7339 41.7203 10.3636C41.7203 10.9934 41.8257 11.5249 42.0364 11.9581C42.2471 12.3913 42.5324 12.7192 42.8922 12.9418C43.2521 13.1643 43.6569 13.2756 44.1067 13.2756C44.5234 13.2756 44.8903 13.1868 45.2076 13.0092C45.5272 12.8293 45.7757 12.576 45.9533 12.2493C46.1332 11.9202 46.2232 11.5331 46.2232 11.0881L46.4931 11.1449H44.3056V10.3636H47.0755V11.1449C47.0755 11.7438 46.9476 12.2647 46.6919 12.7074C46.4386 13.1501 46.0882 13.4934 45.6408 13.7372C45.1957 13.9787 44.6844 14.0994 44.1067 14.0994C43.4628 14.0994 42.897 13.9479 42.4093 13.6449C41.9239 13.3419 41.5452 12.911 41.2729 12.3523C41.003 11.7936 40.8681 11.1307 40.8681 10.3636C40.8681 9.78835 40.945 9.27107 41.0989 8.81179C41.2551 8.35014 41.4753 7.95715 41.7594 7.63281C42.0435 7.30848 42.3797 7.0599 42.7679 6.88707C43.1562 6.71425 43.5835 6.62784 44.0499 6.62784C44.4334 6.62784 44.7909 6.68584 45.1223 6.80185C45.4561 6.91548 45.7533 7.07765 46.0137 7.28835C46.2765 7.49669 46.4954 7.74645 46.6706 8.03764C46.8458 8.32647 46.9666 8.64725 47.0328 9H46.1238ZM48.5838 14V6.72727H49.4645V9.96591H53.3423V6.72727H54.223V14H53.3423V10.7472H49.4645V14H48.5838ZM55.5884 7.50852V6.72727H61.043V7.50852H58.756V14H57.8754V7.50852H55.5884ZM65.2147 6.72727H66.2658L68.7374 12.7642H68.8226L71.2942 6.72727H72.3453V14H71.5215V8.47443H71.4505L69.1777 14H68.3823L66.1096 8.47443H66.0385V14H65.2147V6.72727ZM80.2475 10.3636C80.2475 11.1307 80.109 11.7936 79.832 12.3523C79.555 12.911 79.1751 13.3419 78.6921 13.6449C78.2092 13.9479 77.6576 14.0994 77.0373 14.0994C76.417 14.0994 75.8654 13.9479 75.3825 13.6449C74.8995 13.3419 74.5195 12.911 74.2425 12.3523C73.9656 11.7936 73.8271 11.1307 73.8271 10.3636C73.8271 9.59659 73.9656 8.93371 74.2425 8.375C74.5195 7.81629 74.8995 7.38542 75.3825 7.08239C75.8654 6.77936 76.417 6.62784 77.0373 6.62784C77.6576 6.62784 78.2092 6.77936 78.6921 7.08239C79.1751 7.38542 79.555 7.81629 79.832 8.375C80.109 8.93371 80.2475 9.59659 80.2475 10.3636ZM79.3952 10.3636C79.3952 9.7339 79.2899 9.20241 79.0792 8.76918C78.8709 8.33594 78.5879 8.00805 78.2305 7.78551C77.8754 7.56297 77.4776 7.4517 77.0373 7.4517C76.5969 7.4517 76.198 7.56297 75.8406 7.78551C75.4854 8.00805 75.2025 8.33594 74.9918 8.76918C74.7835 9.20241 74.6793 9.7339 74.6793 10.3636C74.6793 10.9934 74.7835 11.5249 74.9918 11.9581C75.2025 12.3913 75.4854 12.7192 75.8406 12.9418C76.198 13.1643 76.5969 13.2756 77.0373 13.2756C77.4776 13.2756 77.8754 13.1643 78.2305 12.9418C78.5879 12.7192 78.8709 12.3913 79.0792 11.9581C79.2899 11.5249 79.3952 10.9934 79.3952 10.3636ZM83.9727 14H81.7283V6.72727H84.0721C84.7776 6.72727 85.3813 6.87287 85.8832 7.16406C86.3851 7.45289 86.7698 7.86837 87.0373 8.41051C87.3048 8.95028 87.4386 9.59659 87.4386 10.3494C87.4386 11.107 87.3036 11.7592 87.0337 12.3061C86.7638 12.8506 86.3709 13.2696 85.8548 13.5632C85.3387 13.8544 84.7113 14 83.9727 14ZM82.609 13.2188H83.9158C84.5172 13.2188 85.0155 13.1027 85.4109 12.8707C85.8062 12.6387 86.101 12.3085 86.2951 11.88C86.4892 11.4515 86.5863 10.9413 86.5863 10.3494C86.5863 9.76231 86.4904 9.25687 86.2987 8.8331C86.1069 8.40696 85.8204 8.08026 85.4393 7.85298C85.0581 7.62334 84.5835 7.50852 84.0153 7.50852H82.609V13.2188ZM88.9158 14V6.72727H93.305V7.50852H89.7965V9.96591H93.0778V10.7472H89.7965V13.2188H93.3619V14H88.9158Z" fill="#55597D"/>
<defs>
<clipPath id="clip0_8579_3682">
<rect width="20" height="20" fill="white"/>
</clipPath>
</defs>
</svg>
