<svg width="48" height="20" viewBox="0 0 48 20" fill="none" xmlns="http://www.w3.org/2000/svg">
<rect width="48" height="20" rx="10" fill="#0C3247"/>
<path d="M10.201 15.1293C9.567 15.1293 9.00071 15.02 8.50213 14.8015C8.00663 14.583 7.61423 14.2798 7.32493 13.892C7.03871 13.5012 6.88482 13.0488 6.86328 12.5348H8.31286C8.33132 12.8149 8.42519 13.058 8.59446 13.2642C8.76681 13.4673 8.99148 13.6243 9.26847 13.7351C9.54545 13.8459 9.85322 13.9013 10.1918 13.9013C10.5642 13.9013 10.8935 13.8366 11.1797 13.7074C11.469 13.5781 11.6952 13.3981 11.8583 13.1673C12.0214 12.9334 12.103 12.6641 12.103 12.3594C12.103 12.0424 12.0214 11.7638 11.8583 11.5238C11.6983 11.2807 11.4628 11.0898 11.152 10.9513C10.8442 10.8129 10.4718 10.7436 10.0348 10.7436H9.23615V9.58026H10.0348C10.3857 9.58026 10.6934 9.51716 10.9581 9.39098C11.2259 9.2648 11.4351 9.08937 11.5859 8.8647C11.7367 8.63696 11.8121 8.37074 11.8121 8.06605C11.8121 7.77367 11.746 7.51977 11.6136 7.30433C11.4844 7.08582 11.2997 6.91501 11.0597 6.7919C10.8227 6.6688 10.5426 6.60724 10.2195 6.60724C9.9117 6.60724 9.62393 6.66418 9.35618 6.77805C9.0915 6.88885 8.87607 7.04889 8.70987 7.25817C8.54368 7.46437 8.45443 7.71212 8.44212 8.00142H7.06179C7.07718 7.49053 7.22798 7.04119 7.5142 6.65341C7.8035 6.26562 8.18513 5.96248 8.65909 5.74396C9.13305 5.52545 9.65933 5.41619 10.2379 5.41619C10.8442 5.41619 11.3674 5.53468 11.8075 5.77166C12.2507 6.00556 12.5923 6.31794 12.8324 6.70881C13.0755 7.09967 13.1955 7.52746 13.1925 7.99219C13.1955 8.52154 13.0478 8.97088 12.7493 9.3402C12.4538 9.70952 12.0599 9.95727 11.5675 10.0835V10.1573C12.1953 10.2527 12.6816 10.502 13.0263 10.9052C13.3741 11.3084 13.5464 11.8085 13.5433 12.4055C13.5464 12.9257 13.4018 13.3919 13.1094 13.8043C12.8201 14.2167 12.4246 14.5414 11.9229 14.7784C11.4213 15.0123 10.8473 15.1293 10.201 15.1293ZM19.0876 10.7898V15H17.7072V7.90909H19.0322V9.06321H19.1199C19.283 8.68774 19.5385 8.38613 19.8862 8.15838C20.2371 7.93063 20.6787 7.81676 21.2112 7.81676C21.6943 7.81676 22.1175 7.91832 22.4807 8.12145C22.8438 8.3215 23.1255 8.62003 23.3255 9.01705C23.5255 9.41406 23.6256 9.90495 23.6256 10.4897V15H22.2452V10.6559C22.2452 10.1419 22.1114 9.74029 21.8436 9.45099C21.5759 9.15862 21.2081 9.01243 20.7403 9.01243C20.4202 9.01243 20.1355 9.08168 19.8862 9.22017C19.64 9.35866 19.4446 9.56179 19.2999 9.82955C19.1584 10.0942 19.0876 10.4143 19.0876 10.7898ZM28.0129 15.1431C27.3143 15.1431 26.7126 14.9938 26.2078 14.6953C25.7062 14.3937 25.3184 13.9705 25.0445 13.4258C24.7737 12.878 24.6382 12.2363 24.6382 11.5007C24.6382 10.7744 24.7737 10.1342 25.0445 9.58026C25.3184 9.02628 25.7 8.59387 26.1894 8.28303C26.6818 7.97218 27.2573 7.81676 27.9159 7.81676C28.316 7.81676 28.7038 7.88293 29.0793 8.01527C29.4548 8.14761 29.7918 8.35535 30.0903 8.63849C30.3888 8.92164 30.6243 9.28942 30.7966 9.74183C30.969 10.1912 31.0551 10.7375 31.0551 11.3807V11.87H25.4184V10.8359H29.7025C29.7025 10.4728 29.6287 10.1512 29.4809 9.87109C29.3332 9.58795 29.1255 9.36482 28.8577 9.2017C28.593 9.03859 28.2822 8.95703 27.9252 8.95703C27.5374 8.95703 27.1988 9.05244 26.9095 9.24325C26.6233 9.43099 26.4017 9.6772 26.2448 9.98189C26.0909 10.2835 26.014 10.6113 26.014 10.9652V11.7731C26.014 12.247 26.097 12.6502 26.2632 12.9826C26.4325 13.315 26.668 13.5689 26.9696 13.7443C27.2712 13.9167 27.6236 14.0028 28.0267 14.0028C28.2883 14.0028 28.5269 13.9659 28.7423 13.892C28.9577 13.8151 29.1439 13.7012 29.3009 13.5504C29.4578 13.3996 29.5779 13.2134 29.661 12.9918L30.9674 13.2273C30.8628 13.612 30.6751 13.949 30.4042 14.2383C30.1365 14.5245 29.7995 14.7476 29.3932 14.9077C28.99 15.0646 28.5299 15.1431 28.0129 15.1431ZM33.5913 15L31.5046 7.90909H32.9311L34.3207 13.1165H34.3899L35.7841 7.90909H37.2106L38.5955 13.0934H38.6648L40.0451 7.90909H41.4716L39.3895 15H37.9815L36.5412 9.88033H36.435L34.9947 15H33.5913Z" fill="#42BBFF"/>
</svg>
